<mxfile host="65bd71144e">
    <diagram id="7swtnyM_2RYbr8LYSM_w" name="Page-1">
        <mxGraphModel dx="2287" dy="809" grid="0" gridSize="10" guides="1" tooltips="1" connect="1" arrows="1" fold="1" page="1" pageScale="1" pageWidth="1169" pageHeight="827" background="#ffffff" math="0" shadow="1">
            <root>
                <mxCell id="0"/>
                <mxCell id="1" parent="0"/>
                <mxCell id="5" value="Pool" style="swimlane;childLayout=stackLayout;resizeParent=1;resizeParentMax=0;startSize=20;html=1;hachureGap=4;fontFamily=Architects Daughter;fontSource=https%3A%2F%2Ffonts.googleapis.com%2Fcss%3Ffamily%3DArchitects%2BDaughter;fontSize=20;strokeColor=#000000;shadow=0;fillColor=#FFFFFF;fontColor=#000000;fontStyle=1;labelBackgroundColor=none;" parent="1" vertex="1">
                    <mxGeometry x="-220" y="240" width="1656" height="557" as="geometry"/>
                </mxCell>
                <mxCell id="6" value="react-dom" style="swimlane;startSize=20;html=1;hachureGap=4;fontFamily=Architects Daughter;fontSource=https%3A%2F%2Ffonts.googleapis.com%2Fcss%3Ffamily%3DArchitects%2BDaughter;fontSize=20;strokeColor=#000000;shadow=0;fillColor=#FFFFFF;fontColor=#000000;fontStyle=1;labelBackgroundColor=none;" parent="5" vertex="1">
                    <mxGeometry y="20" width="231" height="537" as="geometry">
                        <mxRectangle y="20" width="42" height="537" as="alternateBounds"/>
                    </mxGeometry>
                </mxCell>
                <mxCell id="2" value="render" style="rounded=1;whiteSpace=wrap;html=1;hachureGap=4;fontFamily=Architects Daughter;fontSource=https%3A%2F%2Ffonts.googleapis.com%2Fcss%3Ffamily%3DArchitects%2BDaughter;fontSize=20;strokeColor=#000000;shadow=0;fillColor=#FFFFFF;fontColor=#000000;fontStyle=1;labelBackgroundColor=none;" parent="6" vertex="1">
                    <mxGeometry x="55.499999999999545" y="144" width="120" height="60" as="geometry"/>
                </mxCell>
                <mxCell id="48" value="DOM" style="rounded=1;whiteSpace=wrap;html=1;hachureGap=4;fontFamily=Architects Daughter;fontSource=https%3A%2F%2Ffonts.googleapis.com%2Fcss%3Ffamily%3DArchitects%2BDaughter;fontSize=20;strokeColor=#000000;shadow=0;fillColor=#FFFFFF;fontColor=#000000;fontStyle=1;labelBackgroundColor=none;" vertex="1" parent="6">
                    <mxGeometry x="48" y="389" width="135" height="47" as="geometry"/>
                </mxCell>
                <mxCell id="4" value="" style="edgeStyle=none;hachureGap=4;html=1;fontFamily=Architects Daughter;fontSource=https%3A%2F%2Ffonts.googleapis.com%2Fcss%3Ffamily%3DArchitects%2BDaughter;fontSize=20;strokeColor=#000000;shadow=0;fillColor=#FFFFFF;fontColor=#000000;fontStyle=1;labelBackgroundColor=none;" parent="5" source="2" target="3" edge="1">
                    <mxGeometry relative="1" as="geometry"/>
                </mxCell>
                <mxCell id="15" value="" style="edgeStyle=none;hachureGap=4;html=1;fontFamily=Architects Daughter;fontSource=https%3A%2F%2Ffonts.googleapis.com%2Fcss%3Ffamily%3DArchitects%2BDaughter;fontSize=20;strokeColor=#000000;shadow=0;fillColor=#FFFFFF;fontColor=#000000;fontStyle=1;labelBackgroundColor=none;" parent="5" source="12" target="14" edge="1">
                    <mxGeometry relative="1" as="geometry"/>
                </mxCell>
                <mxCell id="7" value="reconciler" style="swimlane;startSize=20;html=1;hachureGap=4;fontFamily=Architects Daughter;fontSource=https%3A%2F%2Ffonts.googleapis.com%2Fcss%3Ffamily%3DArchitects%2BDaughter;fontSize=20;strokeColor=#000000;shadow=0;fillColor=#FFFFFF;fontColor=#000000;fontStyle=1;labelBackgroundColor=none;" parent="5" vertex="1">
                    <mxGeometry x="231" y="20" width="1383" height="537" as="geometry">
                        <mxRectangle x="42" y="20" width="42" height="537" as="alternateBounds"/>
                    </mxGeometry>
                </mxCell>
                <mxCell id="11" value="" style="edgeStyle=none;hachureGap=4;html=1;fontFamily=Architects Daughter;fontSource=https%3A%2F%2Ffonts.googleapis.com%2Fcss%3Ffamily%3DArchitects%2BDaughter;fontSize=20;strokeColor=#000000;shadow=0;fillColor=#FFFFFF;fontColor=#000000;fontStyle=1;labelBackgroundColor=none;" parent="7" source="3" target="10" edge="1">
                    <mxGeometry relative="1" as="geometry"/>
                </mxCell>
                <mxCell id="3" value="updateContainer" style="rounded=1;whiteSpace=wrap;html=1;hachureGap=4;fontFamily=Architects Daughter;fontSource=https%3A%2F%2Ffonts.googleapis.com%2Fcss%3Ffamily%3DArchitects%2BDaughter;fontSize=20;strokeColor=#000000;shadow=0;fillColor=#FFFFFF;fontColor=#000000;fontStyle=1;labelBackgroundColor=none;" parent="7" vertex="1">
                    <mxGeometry x="35.999999999999545" y="144" width="170" height="60" as="geometry"/>
                </mxCell>
                <mxCell id="10" value="scheduleUpdateOnFiber" style="rounded=1;whiteSpace=wrap;html=1;hachureGap=4;fontFamily=Architects Daughter;fontSource=https%3A%2F%2Ffonts.googleapis.com%2Fcss%3Ffamily%3DArchitects%2BDaughter;fontSize=20;strokeColor=#000000;shadow=0;fillColor=#FFFFFF;fontColor=#000000;fontStyle=1;labelBackgroundColor=none;" parent="7" vertex="1">
                    <mxGeometry x="246" y="144" width="230" height="60" as="geometry"/>
                </mxCell>
                <mxCell id="12" value="ensureRootIsScheduled" style="rounded=1;whiteSpace=wrap;html=1;hachureGap=4;fontFamily=Architects Daughter;fontSource=https%3A%2F%2Ffonts.googleapis.com%2Fcss%3Ffamily%3DArchitects%2BDaughter;fontSize=20;strokeColor=#000000;shadow=0;fillColor=#FFFFFF;fontColor=#000000;fontStyle=1;labelBackgroundColor=none;" parent="7" vertex="1">
                    <mxGeometry x="520" y="144" width="270" height="70" as="geometry"/>
                </mxCell>
                <mxCell id="13" value="" style="edgeStyle=none;hachureGap=4;html=1;fontFamily=Architects Daughter;fontSource=https%3A%2F%2Ffonts.googleapis.com%2Fcss%3Ffamily%3DArchitects%2BDaughter;fontSize=20;strokeColor=#000000;shadow=0;fillColor=#FFFFFF;fontColor=#000000;fontStyle=1;labelBackgroundColor=none;" parent="7" source="10" edge="1">
                    <mxGeometry relative="1" as="geometry">
                        <mxPoint x="516" y="176.6724137931035" as="targetPoint"/>
                    </mxGeometry>
                </mxCell>
                <mxCell id="39" value="" style="edgeStyle=orthogonalEdgeStyle;hachureGap=4;html=1;fontFamily=Architects Daughter;fontSource=https%3A%2F%2Ffonts.googleapis.com%2Fcss%3Ffamily%3DArchitects%2BDaughter;fontSize=20;entryX=0.5;entryY=0;entryDx=0;entryDy=0;strokeColor=#000000;shadow=0;fillColor=#FFFFFF;fontColor=#000000;fontStyle=1;labelBackgroundColor=none;" parent="7" source="34" target="38" edge="1">
                    <mxGeometry relative="1" as="geometry">
                        <mxPoint x="111" y="334" as="targetPoint"/>
                    </mxGeometry>
                </mxCell>
                <mxCell id="34" value="performSyncWorkOnRoot" style="rounded=1;whiteSpace=wrap;html=1;hachureGap=4;fontFamily=Architects Daughter;fontSource=https%3A%2F%2Ffonts.googleapis.com%2Fcss%3Ffamily%3DArchitects%2BDaughter;fontSize=20;strokeColor=#000000;shadow=0;fillColor=#FFFFFF;fontColor=#000000;fontStyle=1;labelBackgroundColor=none;" parent="7" vertex="1">
                    <mxGeometry x="1000" y="264" width="280" height="40" as="geometry"/>
                </mxCell>
                <mxCell id="41" value="" style="edgeStyle=orthogonalEdgeStyle;hachureGap=4;html=1;fontFamily=Architects Daughter;fontSource=https%3A%2F%2Ffonts.googleapis.com%2Fcss%3Ffamily%3DArchitects%2BDaughter;fontSize=20;exitX=0;exitY=0.5;exitDx=0;exitDy=0;entryX=1;entryY=0.5;entryDx=0;entryDy=0;strokeColor=#000000;shadow=0;fillColor=#FFFFFF;fontColor=#000000;fontStyle=1;labelBackgroundColor=none;" parent="7" source="35" target="40" edge="1">
                    <mxGeometry relative="1" as="geometry">
                        <mxPoint x="216" y="489" as="targetPoint"/>
                        <Array as="points">
                            <mxPoint x="920" y="489"/>
                            <mxPoint x="920" y="489"/>
                        </Array>
                    </mxGeometry>
                </mxCell>
                <mxCell id="42" style="edgeStyle=orthogonalEdgeStyle;hachureGap=4;html=1;entryX=1;entryY=0.5;entryDx=0;entryDy=0;fontFamily=Architects Daughter;fontSource=https%3A%2F%2Ffonts.googleapis.com%2Fcss%3Ffamily%3DArchitects%2BDaughter;fontSize=20;exitX=0;exitY=0.5;exitDx=0;exitDy=0;strokeColor=#000000;shadow=0;fillColor=#FFFFFF;fontColor=#000000;fontStyle=1;labelBackgroundColor=none;" parent="7" source="35" target="38" edge="1">
                    <mxGeometry relative="1" as="geometry">
                        <mxPoint x="206" y="354" as="targetPoint"/>
                        <Array as="points">
                            <mxPoint x="890" y="489"/>
                            <mxPoint x="890" y="354"/>
                        </Array>
                    </mxGeometry>
                </mxCell>
                <mxCell id="35" value="performConcurrentWorkOnRoot" style="rounded=1;whiteSpace=wrap;html=1;hachureGap=4;fontFamily=Architects Daughter;fontSource=https%3A%2F%2Ffonts.googleapis.com%2Fcss%3Ffamily%3DArchitects%2BDaughter;fontSize=20;strokeColor=#000000;shadow=0;fillColor=#FFFFFF;fontColor=#000000;fontStyle=1;labelBackgroundColor=none;" parent="7" vertex="1">
                    <mxGeometry x="970" y="464" width="330" height="50" as="geometry"/>
                </mxCell>
                <mxCell id="44" value="" style="edgeStyle=orthogonalEdgeStyle;hachureGap=4;html=1;fontFamily=Architects Daughter;fontSource=https%3A%2F%2Ffonts.googleapis.com%2Fcss%3Ffamily%3DArchitects%2BDaughter;fontSize=20;strokeColor=#000000;shadow=0;fillColor=#FFFFFF;fontColor=#000000;fontStyle=1;labelBackgroundColor=none;" parent="7" source="38" target="43" edge="1">
                    <mxGeometry relative="1" as="geometry"/>
                </mxCell>
                <mxCell id="38" value="renderRootSync" style="rounded=1;whiteSpace=wrap;html=1;hachureGap=4;fontFamily=Architects Daughter;fontSource=https%3A%2F%2Ffonts.googleapis.com%2Fcss%3Ffamily%3DArchitects%2BDaughter;fontSize=20;strokeColor=#000000;shadow=0;fillColor=#FFFFFF;fontColor=#000000;fontStyle=1;labelBackgroundColor=none;" parent="7" vertex="1">
                    <mxGeometry x="610" y="334" width="190" height="40" as="geometry"/>
                </mxCell>
                <mxCell id="46" value="" style="edgeStyle=orthogonalEdgeStyle;hachureGap=4;html=1;fontFamily=Architects Daughter;fontSource=https%3A%2F%2Ffonts.googleapis.com%2Fcss%3Ffamily%3DArchitects%2BDaughter;fontSize=20;strokeColor=#000000;shadow=0;fillColor=#FFFFFF;fontColor=#000000;fontStyle=1;labelBackgroundColor=none;" parent="7" source="40" target="45" edge="1">
                    <mxGeometry relative="1" as="geometry"/>
                </mxCell>
                <mxCell id="40" value="renderRootConcurrent" style="rounded=1;whiteSpace=wrap;html=1;hachureGap=4;fontFamily=Architects Daughter;fontSource=https%3A%2F%2Ffonts.googleapis.com%2Fcss%3Ffamily%3DArchitects%2BDaughter;fontSize=20;strokeColor=#000000;shadow=0;fillColor=#FFFFFF;fontColor=#000000;fontStyle=1;labelBackgroundColor=none;" parent="7" vertex="1">
                    <mxGeometry x="580" y="464" width="230" height="50" as="geometry"/>
                </mxCell>
                <mxCell id="43" value="commitRoot" style="rounded=1;whiteSpace=wrap;html=1;hachureGap=4;fontFamily=Architects Daughter;fontSource=https%3A%2F%2Ffonts.googleapis.com%2Fcss%3Ffamily%3DArchitects%2BDaughter;fontSize=20;strokeColor=#000000;shadow=0;fillColor=#FFFFFF;fontColor=#000000;fontStyle=1;labelBackgroundColor=none;" parent="7" vertex="1">
                    <mxGeometry x="70" y="389" width="190" height="40" as="geometry"/>
                </mxCell>
                <mxCell id="47" style="edgeStyle=orthogonalEdgeStyle;hachureGap=4;html=1;entryX=0.5;entryY=1;entryDx=0;entryDy=0;fontFamily=Architects Daughter;fontSource=https%3A%2F%2Ffonts.googleapis.com%2Fcss%3Ffamily%3DArchitects%2BDaughter;fontSize=20;strokeColor=#000000;shadow=0;fillColor=#FFFFFF;fontColor=#000000;fontStyle=1;labelBackgroundColor=none;" parent="7" source="45" target="43" edge="1">
                    <mxGeometry relative="1" as="geometry"/>
                </mxCell>
                <mxCell id="45" value="finishConcurrentRender" style="rounded=1;whiteSpace=wrap;html=1;hachureGap=4;fontFamily=Architects Daughter;fontSource=https%3A%2F%2Ffonts.googleapis.com%2Fcss%3Ffamily%3DArchitects%2BDaughter;fontSize=20;strokeColor=#000000;shadow=0;fillColor=#FFFFFF;fontColor=#000000;fontStyle=1;labelBackgroundColor=none;" parent="7" vertex="1">
                    <mxGeometry x="270" y="464" width="230" height="50" as="geometry"/>
                </mxCell>
                <mxCell id="8" value="scheduler" style="swimlane;startSize=20;html=1;hachureGap=4;fontFamily=Architects Daughter;fontSource=https%3A%2F%2Ffonts.googleapis.com%2Fcss%3Ffamily%3DArchitects%2BDaughter;fontSize=20;strokeColor=#000000;shadow=0;fillColor=#FFFFFF;fontColor=#000000;fontStyle=1;labelBackgroundColor=none;" parent="5" vertex="1" collapsed="1">
                    <mxGeometry x="1614" y="20" width="42" height="537" as="geometry">
                        <mxRectangle x="84" y="20" width="1127" height="537" as="alternateBounds"/>
                    </mxGeometry>
                </mxCell>
                <mxCell id="23" value="" style="edgeStyle=none;hachureGap=4;html=1;fontFamily=Architects Daughter;fontSource=https%3A%2F%2Ffonts.googleapis.com%2Fcss%3Ffamily%3DArchitects%2BDaughter;fontSize=20;exitX=1;exitY=0.5;exitDx=0;exitDy=0;entryX=0;entryY=0.5;entryDx=0;entryDy=0;strokeColor=#000000;shadow=0;fillColor=#FFFFFF;fontColor=#000000;fontStyle=1;labelBackgroundColor=none;" parent="8" source="14" target="17" edge="1">
                    <mxGeometry relative="1" as="geometry">
                        <Array as="points">
                            <mxPoint x="290" y="174"/>
                            <mxPoint x="290" y="74"/>
                        </Array>
                    </mxGeometry>
                </mxCell>
                <mxCell id="25" value="" style="edgeStyle=none;hachureGap=4;html=1;fontFamily=Architects Daughter;fontSource=https%3A%2F%2Ffonts.googleapis.com%2Fcss%3Ffamily%3DArchitects%2BDaughter;fontSize=20;exitX=1;exitY=0.5;exitDx=0;exitDy=0;strokeColor=#000000;shadow=0;fillColor=#FFFFFF;fontColor=#000000;fontStyle=1;labelBackgroundColor=none;" parent="8" source="14" target="24" edge="1">
                    <mxGeometry relative="1" as="geometry">
                        <Array as="points">
                            <mxPoint x="290" y="174"/>
                            <mxPoint x="300" y="274"/>
                        </Array>
                    </mxGeometry>
                </mxCell>
                <mxCell id="14" value="scheduleCallback" style="rounded=1;whiteSpace=wrap;html=1;hachureGap=4;fontFamily=Architects Daughter;fontSource=https%3A%2F%2Ffonts.googleapis.com%2Fcss%3Ffamily%3DArchitects%2BDaughter;fontSize=20;strokeColor=#000000;shadow=0;fillColor=#FFFFFF;fontColor=#000000;fontStyle=1;labelBackgroundColor=none;" parent="8" vertex="1">
                    <mxGeometry x="50" y="144" width="190" height="60" as="geometry"/>
                </mxCell>
                <mxCell id="27" value="" style="edgeStyle=none;hachureGap=4;html=1;fontFamily=Architects Daughter;fontSource=https%3A%2F%2Ffonts.googleapis.com%2Fcss%3Ffamily%3DArchitects%2BDaughter;fontSize=20;exitX=1;exitY=0.5;exitDx=0;exitDy=0;strokeColor=#000000;shadow=0;fillColor=#FFFFFF;fontColor=#000000;fontStyle=1;labelBackgroundColor=none;" parent="8" source="17" target="26" edge="1">
                    <mxGeometry relative="1" as="geometry">
                        <Array as="points">
                            <mxPoint x="680" y="74"/>
                            <mxPoint x="680" y="184"/>
                        </Array>
                    </mxGeometry>
                </mxCell>
                <mxCell id="17" value="requestHostCallback" style="rounded=1;whiteSpace=wrap;html=1;hachureGap=4;fontFamily=Architects Daughter;fontSource=https%3A%2F%2Ffonts.googleapis.com%2Fcss%3Ffamily%3DArchitects%2BDaughter;fontSize=20;strokeColor=#000000;shadow=0;fillColor=#FFFFFF;fontColor=#000000;fontStyle=1;labelBackgroundColor=none;" parent="8" vertex="1">
                    <mxGeometry x="340" y="44" width="210" height="60" as="geometry"/>
                </mxCell>
                <mxCell id="28" style="edgeStyle=none;hachureGap=4;html=1;entryX=0;entryY=0.5;entryDx=0;entryDy=0;fontFamily=Architects Daughter;fontSource=https%3A%2F%2Ffonts.googleapis.com%2Fcss%3Ffamily%3DArchitects%2BDaughter;fontSize=20;strokeColor=#000000;shadow=0;fillColor=#FFFFFF;fontColor=#000000;fontStyle=1;labelBackgroundColor=none;" parent="8" source="24" target="26" edge="1">
                    <mxGeometry relative="1" as="geometry">
                        <Array as="points">
                            <mxPoint x="680" y="274"/>
                            <mxPoint x="680" y="184"/>
                        </Array>
                    </mxGeometry>
                </mxCell>
                <mxCell id="24" value="requestHostTimeout" style="rounded=1;whiteSpace=wrap;html=1;hachureGap=4;fontFamily=Architects Daughter;fontSource=https%3A%2F%2Ffonts.googleapis.com%2Fcss%3Ffamily%3DArchitects%2BDaughter;fontSize=20;strokeColor=#000000;shadow=0;fillColor=#FFFFFF;fontColor=#000000;fontStyle=1;labelBackgroundColor=none;" parent="8" vertex="1">
                    <mxGeometry x="340" y="254" width="190" height="60" as="geometry"/>
                </mxCell>
                <mxCell id="26" value="performWorkUntilDeadline" style="rounded=1;whiteSpace=wrap;html=1;hachureGap=4;fontFamily=Architects Daughter;fontSource=https%3A%2F%2Ffonts.googleapis.com%2Fcss%3Ffamily%3DArchitects%2BDaughter;fontSize=20;strokeColor=#000000;shadow=0;fillColor=#FFFFFF;fontColor=#000000;fontStyle=1;labelBackgroundColor=none;" parent="8" vertex="1">
                    <mxGeometry x="730" y="154" width="310" height="60" as="geometry"/>
                </mxCell>
                <mxCell id="30" value="" style="edgeStyle=none;hachureGap=4;html=1;fontFamily=Architects Daughter;fontSource=https%3A%2F%2Ffonts.googleapis.com%2Fcss%3Ffamily%3DArchitects%2BDaughter;fontSize=20;entryX=0.5;entryY=0;entryDx=0;entryDy=0;strokeColor=#000000;shadow=0;fillColor=#FFFFFF;fontColor=#000000;fontStyle=1;labelBackgroundColor=none;" parent="8" source="26" target="32" edge="1">
                    <mxGeometry relative="1" as="geometry">
                        <mxPoint x="1100" y="184" as="targetPoint"/>
                    </mxGeometry>
                </mxCell>
                <mxCell id="32" value="workloop" style="ellipse;shape=doubleEllipse;whiteSpace=wrap;html=1;aspect=fixed;hachureGap=4;fontFamily=Architects Daughter;fontSource=https%3A%2F%2Ffonts.googleapis.com%2Fcss%3Ffamily%3DArchitects%2BDaughter;fontSize=20;strokeColor=#000000;shadow=0;fillColor=#FFFFFF;fontColor=#000000;fontStyle=1;labelBackgroundColor=none;" parent="8" vertex="1">
                    <mxGeometry x="820" y="364" width="130" height="130" as="geometry"/>
                </mxCell>
                <mxCell id="33" style="edgeStyle=orthogonalEdgeStyle;hachureGap=4;html=1;fontFamily=Architects Daughter;fontSource=https%3A%2F%2Ffonts.googleapis.com%2Fcss%3Ffamily%3DArchitects%2BDaughter;fontSize=20;entryX=1;entryY=0.5;entryDx=0;entryDy=0;strokeColor=#000000;shadow=0;fillColor=#FFFFFF;fontColor=#000000;fontStyle=1;labelBackgroundColor=none;" parent="5" source="32" target="34" edge="1">
                    <mxGeometry relative="1" as="geometry">
                        <mxPoint x="820" y="384" as="targetPoint"/>
                        <Array as="points">
                            <mxPoint x="1890" y="449"/>
                            <mxPoint x="1890" y="304"/>
                        </Array>
                    </mxGeometry>
                </mxCell>
                <mxCell id="37" style="edgeStyle=orthogonalEdgeStyle;hachureGap=4;html=1;fontFamily=Architects Daughter;fontSource=https%3A%2F%2Ffonts.googleapis.com%2Fcss%3Ffamily%3DArchitects%2BDaughter;fontSize=20;strokeColor=#000000;shadow=0;fillColor=#FFFFFF;fontColor=#000000;fontStyle=1;labelBackgroundColor=none;" parent="5" source="32" target="35" edge="1">
                    <mxGeometry relative="1" as="geometry">
                        <mxPoint x="1240" y="524" as="targetPoint"/>
                        <Array as="points">
                            <mxPoint x="1890" y="449"/>
                            <mxPoint x="1890" y="509"/>
                        </Array>
                    </mxGeometry>
                </mxCell>
                <mxCell id="49" value="" style="edgeStyle=none;html=1;strokeColor=#000000;" edge="1" parent="5" source="43" target="48">
                    <mxGeometry relative="1" as="geometry"/>
                </mxCell>
            </root>
        </mxGraphModel>
    </diagram>
</mxfile>